<svg xmlns="http://www.w3.org/2000/svg" viewBox="0 0 64 64" role="img" aria-label="BxYZ Blog icon">
  <defs>
    <linearGradient id="bg" x1="8" y1="6" x2="56" y2="58" gradientUnits="userSpaceOnUse">
      <stop offset="0" stop-color="#3b82f6" />
      <stop offset="1" stop-color="#1d4ed8" />
    </linearGradient>
    <linearGradient id="shine" x1="16" y1="12" x2="48" y2="44" gradientUnits="userSpaceOnUse">
      <stop offset="0" stop-color="#ffffff" stop-opacity="0.32" />
      <stop offset="1" stop-color="#ffffff" stop-opacity="0" />
    </linearGradient>
  </defs>
  <rect width="64" height="64" rx="16" fill="url(#bg)" />
  <path d="M18 14h19c7 0 12 4 12 10 0 4-2 7-6 9 5 2 8 5 8 11 0 8-6 12-15 12H18V14zm11 8v8h7c3 0 5-1 5-4s-2-4-5-4h-7zm0 16v10h8c4 0 6-2 6-5s-2-5-6-5h-8z" fill="#ffffff" />
  <circle cx="47" cy="20" r="5" fill="#fbbf24" />
  <path d="M14 14h36c-10 4-21 15-25 31-1 4-1 8 0 19H14V14z" fill="url(#shine)" />
</svg>
